<svg width="16" height="20" viewBox="0 0 16 20" fill="none" xmlns="http://www.w3.org/2000/svg">
<path d="M13.084 10.6582C13.0293 10.8223 13.125 11.3145 13.3711 12.1348C13.6172 12.9824 14.3555 13.748 15.5859 14.4316C15.4219 14.9512 15.1348 15.5938 14.7246 16.3594C14.3145 17.0977 13.8223 17.7676 13.248 18.3691C12.6738 18.9434 12.0586 19.2578 11.4023 19.3125C10.8555 19.2852 10.3633 19.1621 9.92578 18.9434C9.46094 18.7246 8.90039 18.6016 8.24414 18.5742C7.56055 18.6016 6.97266 18.7383 6.48047 18.9844C6.04297 19.1758 5.60547 19.2852 5.16797 19.3125C4.48438 19.2852 3.8418 18.957 3.24023 18.3281C2.63867 17.6992 2.11914 16.9883 1.68164 16.1953C1.24414 15.375 0.929688 14.7051 0.738281 14.1855C0.355469 13.0371 0.164062 11.9297 0.164062 10.8633C0.21875 9.03125 0.724609 7.66406 1.68164 6.76172C2.61133 5.85938 3.67773 5.39453 4.88086 5.36719C5.56445 5.42187 6.23438 5.58594 6.89062 5.85938C7.35547 6.05078 7.73828 6.16016 8.03906 6.1875C8.25781 6.16016 8.58594 6.06445 9.02344 5.90039C9.37891 5.76367 9.78906 5.62695 10.2539 5.49023C10.7188 5.35352 11.1836 5.29883 11.6484 5.32617C13.1797 5.46289 14.3418 6.07812 15.1348 7.17188C13.7402 7.99219 13.0566 9.1543 13.084 10.6582ZM10.7461 3.93164C9.92578 4.88867 8.98242 5.35352 7.91602 5.32617C7.86133 4.17773 8.20312 3.19336 8.94141 2.37305C9.29688 1.99023 9.7207 1.66211 10.2129 1.38867C10.7324 1.11523 11.2383 0.964844 11.7305 0.9375C11.7852 1.18359 11.7715 1.56641 11.6895 2.08594C11.5801 2.63281 11.2656 3.24805 10.7461 3.93164Z" fill="white"/>
</svg>
