<svg width="25" height="24" viewBox="0 0 25 24" fill="none" xmlns="http://www.w3.org/2000/svg">
<mask id="mask0_13_63560" style="mask-type:alpha" maskUnits="userSpaceOnUse" x="0" y="0" width="25" height="25">
<rect x="0.000244141" y="0.5" width="24" height="24" fill="#D9D9D9"/>
</mask>
<g mask="url(#mask0_13_63560)">
<path d="M6.00018 11.45L5.00018 12C4.76685 12.1333 4.51685 12.1667 4.25018 12.1C3.98351 12.0333 3.78351 11.8833 3.65018 11.65L1.65018 8.15C1.51685 7.91667 1.48351 7.66667 1.55018 7.4C1.61685 7.13333 1.76685 6.93333 2.00018 6.8L7.75018 3.5H9.50018C9.65018 3.5 9.77101 3.54583 9.86268 3.6375C9.95435 3.72917 10.0002 3.85 10.0002 4V4.5C10.0002 5.05 10.196 5.52083 10.5877 5.9125C10.9793 6.30417 11.4502 6.5 12.0002 6.5C12.5502 6.5 13.021 6.30417 13.4127 5.9125C13.8043 5.52083 14.0002 5.05 14.0002 4.5V4C14.0002 3.85 14.046 3.72917 14.1377 3.6375C14.2293 3.54583 14.3502 3.5 14.5002 3.5H16.2502L22.0002 6.8C22.2335 6.93333 22.3835 7.13333 22.4502 7.4C22.5168 7.66667 22.4835 7.91667 22.3502 8.15L20.3502 11.65C20.2168 11.8833 20.021 12.0292 19.7627 12.0875C19.5043 12.1458 19.2502 12.1083 19.0002 11.975L18.0002 11.475V20.5C18.0002 20.7833 17.9043 21.0208 17.7127 21.2125C17.521 21.4042 17.2835 21.5 17.0002 21.5H7.00018C6.71685 21.5 6.47935 21.4042 6.28768 21.2125C6.09601 21.0208 6.00018 20.7833 6.00018 20.5V11.45ZM8.00018 8.1V19.5H16.0002V8.1L19.1002 9.8L20.1502 8.05L15.8502 5.55C15.6002 6.4 15.1293 7.10417 14.4377 7.6625C13.746 8.22083 12.9335 8.5 12.0002 8.5C11.0668 8.5 10.2543 8.22083 9.56268 7.6625C8.87101 7.10417 8.40018 6.4 8.15018 5.55L3.85018 8.05L4.90018 9.8L8.00018 8.1Z" fill="#A8C8FF"/>
</g>
</svg>
