<svg width="18" height="18" viewBox="0 0 18 18" fill="none" xmlns="http://www.w3.org/2000/svg">
<path d="M17.1562 9.46094C17.1094 11.9922 16.3359 14.0312 14.8359 15.5781C13.3125 17.125 11.2734 17.9219 8.71875 17.9688C7.10156 17.9453 5.63672 17.5469 4.32422 16.7734C3.01172 16 1.96875 14.957 1.19531 13.6445C0.421875 12.332 0.0234375 10.8672 0 9.25C0.0234375 7.63281 0.421875 6.16797 1.19531 4.85547C1.96875 3.54297 3.01172 2.5 4.32422 1.72656C5.63672 0.953125 7.10156 0.554688 8.71875 0.53125C11.0859 0.578125 13.0312 1.33984 14.5547 2.81641L12.1992 5.10156C11.0977 4.11719 9.86719 3.67187 8.50781 3.76562C7.14844 3.83594 5.95312 4.35156 4.92188 5.3125C3.91406 6.29688 3.375 7.60938 3.30469 9.25C3.35156 10.8203 3.87891 12.1211 4.88672 13.1523C5.91797 14.1836 7.19531 14.7227 8.71875 14.7695C9.86719 14.7461 10.793 14.5117 11.4961 14.0664C12.1992 13.6211 12.7266 13.1172 13.0781 12.5547C13.4062 11.9688 13.6055 11.4531 13.6758 11.0078H8.71875V7.98438H17.0156C17.1094 8.40625 17.1562 8.89844 17.1562 9.46094Z" fill="white"/>
</svg>
