<svg width="25" height="24" viewBox="0 0 25 24" fill="none" xmlns="http://www.w3.org/2000/svg">
<path d="M6.125 17.2951C6.125 18.1753 6.83855 18.8889 7.71875 18.8889C8.59895 18.8889 9.3125 18.1753 9.3125 17.2951V14.5556C9.3125 13.451 10.2079 12.5556 11.3125 12.5556H13.6875C14.7921 12.5556 15.6875 13.451 15.6875 14.5556V17.2951C15.6875 18.1753 16.401 18.8889 17.2812 18.8889C18.1615 18.8889 18.875 18.1753 18.875 17.2951V10.3928C18.875 9.76109 18.5765 9.1665 18.07 8.78906L13.695 5.52925C12.9859 5.00094 12.0141 5.00094 11.305 5.52925L6.93004 8.78906C6.42347 9.1665 6.125 9.76109 6.125 10.3928V17.2951ZM6 21C4.89543 21 4 20.1046 4 19V9.33727C4 8.70554 4.29847 8.11095 4.80504 7.7335L11.305 2.89036C12.0141 2.36205 12.9859 2.36205 13.695 2.89036L20.195 7.7335C20.7015 8.11095 21 8.70554 21 9.33727V19C21 20.1046 20.1046 21 19 21H15.5625C14.4579 21 13.5625 20.1046 13.5625 19V15.7292C13.5625 15.1424 13.0868 14.6667 12.5 14.6667C11.9132 14.6667 11.4375 15.1424 11.4375 15.7292V19C11.4375 20.1046 10.5421 21 9.4375 21H6Z" fill="white"/>
</svg>
