<svg width="25" height="24" viewBox="0 0 25 24" fill="none" xmlns="http://www.w3.org/2000/svg">
<mask id="mask0_13_63574" style="mask-type:alpha" maskUnits="userSpaceOnUse" x="0" y="0" width="25" height="25">
<rect x="0.75" y="0.375" width="24" height="24" fill="#D9D9D9"/>
</mask>
<g mask="url(#mask0_13_63574)">
<path d="M4.75 22.375C4.2 22.375 3.72917 22.1792 3.3375 21.7875C2.94583 21.3958 2.75 20.925 2.75 20.375V8.375C2.75 7.95833 2.8625 7.58333 3.0875 7.25C3.3125 6.91667 3.61667 6.675 4 6.525L16.65 1.375L17.3 3.025L9.05 6.375H20.75C21.3 6.375 21.7708 6.57083 22.1625 6.9625C22.5542 7.35417 22.75 7.825 22.75 8.375V20.375C22.75 20.925 22.5542 21.3958 22.1625 21.7875C21.7708 22.1792 21.3 22.375 20.75 22.375H4.75ZM4.75 20.375H20.75V13.375H4.75V20.375ZM8.75 19.375C9.45 19.375 10.0417 19.1333 10.525 18.65C11.0083 18.1667 11.25 17.575 11.25 16.875C11.25 16.175 11.0083 15.5833 10.525 15.1C10.0417 14.6167 9.45 14.375 8.75 14.375C8.05 14.375 7.45833 14.6167 6.975 15.1C6.49167 15.5833 6.25 16.175 6.25 16.875C6.25 17.575 6.49167 18.1667 6.975 18.65C7.45833 19.1333 8.05 19.375 8.75 19.375ZM4.75 11.375H16.75V9.375H18.75V11.375H20.75V8.375H4.75V11.375Z" fill="#A8C8FF"/>
</g>
</svg>
