<svg width="25" height="24" viewBox="0 0 25 24" fill="none" xmlns="http://www.w3.org/2000/svg">
<path d="M4.5 21C3.95 21 3.47917 20.8042 3.0875 20.4125C2.69583 20.0208 2.5 19.55 2.5 19V5C2.5 4.45 2.69583 3.97917 3.0875 3.5875C3.47917 3.19583 3.95 3 4.5 3H20.5C21.05 3 21.5208 3.19583 21.9125 3.5875C22.3042 3.97917 22.5 4.45 22.5 5V19C22.5 19.55 22.3042 20.0208 21.9125 20.4125C21.5208 20.8042 21.05 21 20.5 21H4.5ZM4.5 19H20.5V5H4.5V19ZM6.5 17H18.5V15H6.5V17ZM6.5 13H10.5V7H6.5V13ZM12.5 13H18.5V11H12.5V13ZM12.5 9H18.5V7H12.5V9Z" fill="#A8C8FF"/>
</svg>
