<svg width="53" height="55" viewBox="0 0 53 55" fill="none" xmlns="http://www.w3.org/2000/svg">
<path d="M34.7514 39.8335L34.2144 38.3162C40.3896 36.1538 44.5378 30.3214 44.5378 23.8019C44.5378 15.3206 37.6054 8.42019 29.0847 8.42019C27.4738 8.42019 25.8855 8.66589 24.3661 9.15046C21.2721 10.1362 18.6089 12.0383 16.6626 14.65C14.679 17.3126 13.6306 20.4775 13.6306 23.8028H12.0138C12.0138 20.13 13.1723 16.6333 15.3635 13.6916C17.5113 10.8078 20.4538 8.70799 23.8724 7.61845C25.5511 7.08299 27.3046 6.81183 29.0837 6.81183C38.4964 6.81183 46.1536 14.4337 46.1536 23.8028C46.1536 31.0037 41.5707 37.447 34.7504 39.8345L34.7514 39.8335Z" fill="#1C4180" stroke="#1C4180"/>
<path d="M33.1229 29.8917H25.0467L22.5507 22.2464L29.0848 17.5212L35.6189 22.2464L33.1229 29.8917ZM26.2209 28.2834H31.9486L33.7188 22.8612L29.0848 19.5103L24.4507 22.8612L26.2209 28.2834Z" fill="#1C4180" stroke="#1C4180"/>
<path d="M26.2364 29.6224L25.9954 29.8916L4.16558 54.25H2L24.7209 28.8961L25.0307 28.5515L26.2364 29.6224Z" fill="#1C4180" stroke="#1C4180"/>
<path d="M35.0884 39.6094L34.9517 39.7621L30.2921 44.9601L28.8248 46.5998L28.8228 46.6008L25.8282 49.9418H23.6626L33.7558 38.6774L33.7578 38.6764L33.8817 38.5384L34.4816 39.07L34.4856 39.0729L34.4866 39.0749L35.0884 39.6094Z" fill="#1C4180" stroke="#1C4180"/>
<path d="M13.4258 24.3246L13.3629 24.3961L4.16558 34.657H2L6.84748 29.2485L6.84846 29.2466L8.1781 27.7655V27.7645L12.0175 23.4798L12.2201 23.2537L12.821 23.7872L12.824 23.7901L12.8358 23.8019L13.4258 24.3246Z" fill="#1C4180" stroke="#1C4180"/>
<path d="M29.0845 13.16L23.6293 9.02315L24.6088 7.74371L29.0845 11.1376L33.5593 7.74371L34.5388 9.02315L29.0845 13.16Z" fill="#1C4180" stroke="#1C4180"/>
<path d="M44.9102 24.4508L39.271 20.5675L41.5359 14.1243L43.0612 14.6558L41.2035 19.941L45.8297 23.1273L44.9102 24.4508Z" fill="#1C4180" stroke="#1C4180"/>
<path d="M13.2823 24.4508L12.3628 23.1273L16.989 19.941L15.1312 14.6558L16.6576 14.1243L18.9215 20.5675L13.2823 24.4508Z" fill="#1C4180" stroke="#1C4180"/>
<path d="M35.2643 39.2872L33.7056 38.8595L35.5269 32.2939H42.3974V33.9032H36.7572L35.2643 39.2872Z" fill="#1C4180" stroke="#1C4180"/>
<path d="M52.0032 23.8019C52.0032 29.8153 49.6812 35.4744 45.4543 39.7621H43.0901C47.5599 35.8748 50.3874 30.1619 50.3874 23.8019C50.3874 12.1166 40.837 2.60836 29.0974 2.60836C17.3579 2.60836 7.98154 11.9423 7.80845 23.4798H6.19263C6.27425 17.5084 8.64931 11.91 12.8988 7.67815C17.2261 3.37093 22.9773 1 29.0974 1C35.2175 1 40.9688 3.37093 45.294 7.67815C49.6212 11.9854 52.0032 17.7101 52.0032 23.8019Z" fill="#1C4180" stroke="#1C4180"/>
</svg>
