<svg width="135" height="142" viewBox="0 0 135 142" fill="none" xmlns="http://www.w3.org/2000/svg">
<g id="Group 1">
<path id="Vector" d="M88.2916 102.681L86.8856 98.708C103.054 93.0459 113.916 77.7746 113.916 60.7038C113.916 38.4966 95.7644 20.4288 73.454 20.4288C69.236 20.4288 65.0773 21.0721 61.0988 22.3409C52.9976 24.922 46.0243 29.9023 40.9283 36.7408C35.7344 43.7126 32.9893 51.9993 32.9893 60.7064H28.7559C28.7559 51.0894 31.7894 41.9338 37.5266 34.2314C43.1506 26.6803 50.8552 21.1823 59.8061 18.3295C64.2018 16.9275 68.7931 16.2175 73.4514 16.2175C98.0974 16.2175 118.147 36.1743 118.147 60.7064C118.147 79.5611 106.147 96.4319 88.289 102.683L88.2916 102.681Z" fill="white" stroke="white" stroke-width="2"/>
<path id="Vector_2" d="M84.0273 76.6494H62.8808L56.3453 56.631L73.4541 44.2586L90.5628 56.631L84.0273 76.6494ZM65.9555 72.4381H80.9527L85.5878 58.2407L73.4541 49.467L61.3203 58.2407L65.9555 72.4381Z" fill="white" stroke="white" stroke-width="2"/>
<path id="Vector_3" d="M65.9966 75.9445L65.3657 76.6494L8.20687 140.429H2.53656L62.0284 74.0426L62.8396 73.1404L65.9966 75.9445Z" fill="white" stroke="white" stroke-width="2"/>
<path id="Vector_4" d="M89.1749 102.094L88.8169 102.494L76.6163 116.104L72.7743 120.398L72.7691 120.4L64.928 129.148H59.2577L85.6857 99.6538L85.6908 99.6513L86.0153 99.2899L87.5861 100.682L87.5964 100.689L87.5989 100.694L89.1749 102.094Z" fill="white" stroke="white" stroke-width="2"/>
<path id="Vector_5" d="M32.4537 62.0727L32.2889 62.2598L8.20687 89.1269H2.53656L15.2291 74.9654L15.2317 74.9603L18.7132 71.0822V71.0797L28.7662 59.8607L29.2967 59.2686L30.8701 60.6655L30.8778 60.6732L30.9087 60.7039L32.4537 62.0727Z" fill="white" stroke="white" stroke-width="2"/>
<path id="Vector_6" d="M73.4541 32.8397L59.1702 22.0077L61.7349 18.6576L73.4541 27.5442L85.1706 18.6576L87.7354 22.0077L73.4541 32.8397Z" fill="white" stroke="white" stroke-width="2"/>
<path id="Vector_7" d="M114.892 62.4033L100.127 52.2352L106.057 35.3644L110.051 36.7562L105.187 50.5948L117.3 58.9379L114.892 62.4033Z" fill="white" stroke="white" stroke-width="2"/>
<path id="Vector_8" d="M32.0778 62.4033L29.6701 58.9379L41.7832 50.5948L36.9189 36.7562L40.9154 35.3644L46.8432 52.2352L32.0778 62.4033Z" fill="white" stroke="white" stroke-width="2"/>
<path id="Vector_9" d="M89.6358 101.251L85.5543 100.131L90.3233 82.9393H108.313V87.1532H93.5447L89.6358 101.251Z" fill="white" stroke="white" stroke-width="2"/>
<path id="Vector_10" d="M133.463 60.7039C133.463 76.4494 127.384 91.2671 116.316 102.494H110.126C121.829 92.3154 129.233 77.3568 129.233 60.7039C129.233 30.1073 104.226 5.21129 73.4875 5.21129C42.7489 5.21129 18.1982 29.6511 17.7449 59.8606H13.5141C13.7278 44.2253 19.9466 29.5665 31.0735 18.4859C42.4038 7.20799 57.4628 1 73.4875 1C89.5122 1 104.571 7.20799 115.896 18.4859C127.227 29.7639 133.463 44.7533 133.463 60.7039Z" fill="white" stroke="white" stroke-width="2"/>
</g>
</svg>
